<svg width="32" height="32" viewBox="0 0 32 32" fill="none" xmlns="http://www.w3.org/2000/svg">
<path d="M16.0755 20.1142L18.1325 22.1712L24.3037 16L18.1325 9.82895L16.0755 11.886L18.7351 14.5455H7.77195V17.4546H18.735L16.0755 20.1142Z" fill="white"/>
<path fill-rule="evenodd" clip-rule="evenodd" d="M27.3138 27.3138C33.5621 21.0653 33.5621 10.9347 27.3138 4.6863C21.0653 -1.5621 10.9347 -1.5621 4.6863 4.6863C-1.5621 10.9347 -1.5621 21.0653 4.6863 27.3138C10.9347 33.5621 21.0653 33.5621 27.3138 27.3138ZM25.2568 25.2568C30.3691 20.1443 30.3691 11.8557 25.2568 6.74334C20.1443 1.63101 11.8557 1.63101 6.74334 6.74334C1.63101 11.8557 1.63101 20.1443 6.74334 25.2568C11.8557 30.3691 20.1443 30.3691 25.2568 25.2568Z" fill="white"/>
</svg>
