<svg width="37" height="37" viewBox="0 0 37 37" fill="none" xmlns="http://www.w3.org/2000/svg">
<path d="M31.9513 14.6098C32.032 14.4263 32.0757 14.2288 32.08 14.0284C32.0843 13.8281 32.049 13.6288 31.9763 13.4421C31.9035 13.2554 31.7946 13.0849 31.6558 12.9403C31.5171 12.7957 31.3512 12.6798 31.1676 12.5994L11.1942 3.80651C9.67418 3.13741 7.80286 3.88441 7.15363 5.39827L3.77761 13.2716C3.46 14.0163 3.45084 14.8567 3.75213 15.6082C4.05341 16.3597 4.64054 16.9609 5.38466 17.28L14.6084 21.2335L12.7141 25.969H6.11027V21.3862H3.05505V33.6071H6.11027V29.0243H12.7141C13.9713 29.0243 15.085 28.2696 15.5494 27.1025L17.4161 22.4372L25.3673 25.8438C25.7376 26.0027 26.1557 26.0088 26.5305 25.8609C26.9053 25.713 27.2065 25.423 27.3685 25.054L27.8451 23.9694L30.4435 25.0082L33.4988 17.3701L31.1524 16.4337L31.9513 14.6098ZM25.1779 22.4403L6.58841 14.4738L9.96137 6.60356L28.5401 14.7824L25.1779 22.4403V22.4403Z" fill="white"/>
</svg>
