<svg width="68" height="89" viewBox="0 0 68 89" fill="none" xmlns="http://www.w3.org/2000/svg">
<path d="M50.3373 28.0338H17.9624V63.7049H0.432203V0.5H67.5678V63.7049H50.3373V28.0338Z" fill="white"/>
<path d="M0 88.1824V69.6577H6.68125C8.90834 69.6577 10.7429 70.0459 12.1851 70.8221C13.6455 71.5808 14.7225 72.657 15.4162 74.0507C16.1281 75.4269 16.4841 77.05 16.4841 78.9201C16.4841 80.7902 16.1281 82.4221 15.4162 83.8159C14.7225 85.192 13.6455 86.2682 12.1851 87.0445C10.7429 87.8031 8.89921 88.1824 6.65387 88.1824H0ZM3.69659 85.1126H6.46219C8.03211 85.1126 9.27343 84.8656 10.1862 84.3716C11.0989 83.8776 11.747 83.172 12.1303 82.2545C12.5137 81.3195 12.7053 80.208 12.7053 78.9201C12.7053 77.6145 12.5137 76.5031 12.1303 75.5856C11.747 74.6506 11.0989 73.9361 10.1862 73.4421C9.27343 72.9481 8.03211 72.7011 6.46219 72.7011H3.69659V85.1126Z" fill="white"/>
<path d="M27.6926 88.5C25.7941 88.5 24.1238 88.0942 22.6816 87.2827C21.2395 86.4711 20.1077 85.3508 19.2863 83.9218C18.483 82.4751 18.0814 80.8078 18.0814 78.9201C18.0814 77.0323 18.483 75.3739 19.2863 73.9449C20.1077 72.4982 21.2395 71.3691 22.6816 70.5575C24.1238 69.746 25.7941 69.3402 27.6926 69.3402C29.5911 69.3402 31.2614 69.746 32.7035 70.5575C34.1639 71.3691 35.2957 72.4982 36.0989 73.9449C36.9204 75.3739 37.3311 77.0323 37.3311 78.9201C37.3311 80.8078 36.9204 82.4751 36.0989 83.9218C35.2957 85.3508 34.1639 86.4711 32.7035 87.2827C31.2614 88.0942 29.5911 88.5 27.6926 88.5ZM27.6926 85.2979C28.8791 85.2979 29.9105 85.0421 30.7868 84.5304C31.663 84.0011 32.3384 83.2602 32.813 82.3075C33.3059 81.3548 33.5524 80.2256 33.5524 78.9201C33.5524 77.5969 33.3059 76.4678 32.813 75.5327C32.3384 74.58 31.663 73.8478 30.7868 73.3362C29.9105 72.8246 28.8791 72.5688 27.6926 72.5688C26.506 72.5688 25.4746 72.8246 24.5984 73.3362C23.7222 73.8478 23.0376 74.58 22.5447 75.5327C22.0701 76.4678 21.8328 77.5969 21.8328 78.9201C21.8328 80.2256 22.0701 81.3548 22.5447 82.3075C23.0376 83.2602 23.7222 84.0011 24.5984 84.5304C25.4746 85.0421 26.506 85.2979 27.6926 85.2979Z" fill="white"/>
<path d="M39.2827 88.1824V69.6577H51.9059V72.5423H42.9793V77.3852H51.0844V80.1639H42.9793V85.2979H51.9059V88.1824H39.2827Z" fill="white"/>
<path d="M53.8434 88.1824V69.6577H61.0175C62.5509 69.6577 63.8197 69.9135 64.8237 70.4252C65.8459 70.9368 66.6035 71.6249 67.0964 72.4894C67.5893 73.3362 67.8357 74.2801 67.8357 75.321C67.8357 76.309 67.5893 77.2352 67.0964 78.0997C66.6218 78.9466 65.8733 79.6346 64.8511 80.1639C63.847 80.6755 62.551 80.9313 60.9628 80.9313H57.54V88.1824H53.8434ZM63.7831 88.1824L59.8401 80.0316H63.8379L68 88.1824H63.7831ZM57.54 78.3379H60.7985C61.912 78.3379 62.7335 78.0732 63.2629 77.544C63.7923 77.0147 64.057 76.3178 64.057 75.4533C64.057 74.5888 63.7923 73.9096 63.2629 73.4156C62.7518 72.904 61.9212 72.6482 60.7711 72.6482H57.54V78.3379Z" fill="white"/>
</svg>
