<svg width="38" height="37" viewBox="0 0 38 37" fill="none" xmlns="http://www.w3.org/2000/svg">
<path d="M19.0307 3.81885C27.0453 3.81885 33.543 10.3165 33.543 18.3311C33.543 26.3457 27.0453 32.8434 19.0307 32.8434C11.0161 32.8434 4.51843 26.3457 4.51843 18.3311C4.51843 10.3165 11.0161 3.81885 19.0307 3.81885ZM19.0307 5.72836C12.0702 5.72836 6.42794 11.3706 6.42794 18.3311C6.42794 25.2917 12.0702 30.9339 19.0307 30.9339C25.9913 30.9339 31.6335 25.2917 31.6335 18.3311C31.6335 11.3706 25.9913 5.72836 19.0307 5.72836ZM18.076 9.16548C18.5701 9.16548 18.9772 9.54127 19.0261 10.0225L19.0307 10.1202V18.3311H24.1864C24.4319 18.33 24.6684 18.4235 24.8468 18.5921C25.0252 18.7608 25.1317 18.9917 25.1443 19.2369C25.1569 19.4821 25.0746 19.7227 24.9144 19.9088C24.7542 20.0949 24.5285 20.2121 24.2842 20.2361L24.1864 20.2406H18.076C17.8396 20.2407 17.6116 20.1532 17.4361 19.9949C17.2605 19.8366 17.15 19.6188 17.1258 19.3836L17.1212 19.2859V10.1202C17.1212 9.59321 17.5489 9.16548 18.076 9.16548Z" fill="white"/>
</svg>
