<svg width="32" height="32" viewBox="0 0 32 32" fill="none" xmlns="http://www.w3.org/2000/svg">
<path d="M15.9245 11.8858L13.8675 9.82878L7.69627 16L13.8675 22.171L15.9245 20.114L13.2649 17.4545H24.2281V14.5454L13.265 14.5454L15.9245 11.8858Z" fill="white"/>
<path fill-rule="evenodd" clip-rule="evenodd" d="M4.68622 4.68622C-1.56207 10.9347 -1.56207 21.0653 4.68622 27.3137C10.9347 33.5621 21.0653 33.5621 27.3137 27.3137C33.5621 21.0653 33.5621 10.9347 27.3137 4.68622C21.0653 -1.56207 10.9347 -1.56207 4.68622 4.68622ZM6.74325 6.74325C1.63095 11.8557 1.63095 20.1443 6.74325 25.2567C11.8557 30.369 20.1443 30.369 25.2567 25.2567C30.369 20.1443 30.369 11.8557 25.2567 6.74325C20.1443 1.63095 11.8557 1.63095 6.74325 6.74325Z" fill="white"/>
<path d="M15.9245 11.8858L13.8675 9.82878L7.69627 16L13.8675 22.171L15.9245 20.114L13.2649 17.4545H24.2281V14.5454L13.265 14.5454L15.9245 11.8858Z" stroke="black"/>
<path fill-rule="evenodd" clip-rule="evenodd" d="M4.68622 4.68622C-1.56207 10.9347 -1.56207 21.0653 4.68622 27.3137C10.9347 33.5621 21.0653 33.5621 27.3137 27.3137C33.5621 21.0653 33.5621 10.9347 27.3137 4.68622C21.0653 -1.56207 10.9347 -1.56207 4.68622 4.68622ZM6.74325 6.74325C1.63095 11.8557 1.63095 20.1443 6.74325 25.2567C11.8557 30.369 20.1443 30.369 25.2567 25.2567C30.369 20.1443 30.369 11.8557 25.2567 6.74325C20.1443 1.63095 11.8557 1.63095 6.74325 6.74325Z" stroke="black"/>
</svg>
