<svg width="38" height="37" viewBox="0 0 38 37" fill="none" xmlns="http://www.w3.org/2000/svg">
<path d="M18.907 12.2206C15.5309 12.2206 12.7965 14.955 12.7965 18.331C12.7965 21.707 15.5309 24.4415 18.907 24.4415C22.283 24.4415 25.0174 21.707 25.0174 18.331C25.0174 14.955 22.283 12.2206 18.907 12.2206ZM32.5638 16.8034C32.2178 13.7056 30.8286 10.8176 28.6245 8.61345C26.4204 6.40935 23.5324 5.02024 20.4346 4.67422V1.52734H17.3794V4.67422C14.2815 5.02024 11.3935 6.40935 9.18938 8.61345C6.98528 10.8176 5.59617 13.7056 5.25014 16.8034H2.10327V19.8586H5.25014C5.59617 22.9564 6.98528 25.8445 9.18938 28.0486C11.3935 30.2527 14.2815 31.6418 17.3794 31.9879V35.1347H20.4346V31.9879C23.5324 31.6418 26.4204 30.2527 28.6245 28.0486C30.8286 25.8445 32.2178 22.9564 32.5638 19.8586H35.7107V16.8034H32.5638V16.8034ZM18.907 29.0243C12.9951 29.0243 8.2137 24.2429 8.2137 18.331C8.2137 12.4192 12.9951 7.63778 18.907 7.63778C24.8188 7.63778 29.6002 12.4192 29.6002 18.331C29.6002 24.2429 24.8188 29.0243 18.907 29.0243Z" fill="white"/>
</svg>
