<svg width="38" height="37" viewBox="0 0 38 37" fill="none" xmlns="http://www.w3.org/2000/svg">
<path d="M29.5769 6.1099H26.5217V4.5823C26.5217 4.17715 26.3607 3.7886 26.0742 3.50211C25.7878 3.21563 25.3992 3.05469 24.9941 3.05469C24.5889 3.05469 24.2004 3.21563 23.9139 3.50211C23.6274 3.7886 23.4665 4.17715 23.4665 4.5823V6.1099H14.3008V4.5823C14.3008 4.17715 14.1399 3.7886 13.8534 3.50211C13.5669 3.21563 13.1783 3.05469 12.7732 3.05469C12.368 3.05469 11.9795 3.21563 11.693 3.50211C11.4065 3.7886 11.2456 4.17715 11.2456 4.5823V6.1099H8.19037C6.97493 6.1099 5.80927 6.59274 4.94982 7.45218C4.09038 8.31163 3.60754 9.47729 3.60754 10.6927V29.024C3.60754 30.2395 4.09038 31.4051 4.94982 32.2646C5.80927 33.124 6.97493 33.6069 8.19037 33.6069H29.5769C30.7923 33.6069 31.958 33.124 32.8174 32.2646C33.6769 31.4051 34.1597 30.2395 34.1597 29.024V10.6927C34.1597 9.47729 33.6769 8.31163 32.8174 7.45218C31.958 6.59274 30.7923 6.1099 29.5769 6.1099V6.1099ZM31.1045 29.024C31.1045 29.4292 30.9436 29.8177 30.6571 30.1042C30.3706 30.3907 29.982 30.5516 29.5769 30.5516H8.19037C7.78522 30.5516 7.39667 30.3907 7.11019 30.1042C6.8237 29.8177 6.66276 29.4292 6.66276 29.024V18.3308H31.1045V29.024ZM31.1045 15.2756H6.66276V10.6927C6.66276 10.2876 6.8237 9.89903 7.11019 9.61255C7.39667 9.32606 7.78522 9.16512 8.19037 9.16512H11.2456V10.6927C11.2456 11.0979 11.4065 11.4864 11.693 11.7729C11.9795 12.0594 12.368 12.2203 12.7732 12.2203C13.1783 12.2203 13.5669 12.0594 13.8534 11.7729C14.1399 11.4864 14.3008 11.0979 14.3008 10.6927V9.16512H23.4665V10.6927C23.4665 11.0979 23.6274 11.4864 23.9139 11.7729C24.2004 12.0594 24.5889 12.2203 24.9941 12.2203C25.3992 12.2203 25.7878 12.0594 26.0742 11.7729C26.3607 11.4864 26.5217 11.0979 26.5217 10.6927V9.16512H29.5769C29.982 9.16512 30.3706 9.32606 30.6571 9.61255C30.9436 9.89903 31.1045 10.2876 31.1045 10.6927V15.2756Z" fill="white"/>
</svg>
